<mxfile host="app.diagrams.net" modified="2023-05-06T23:33:23.259Z" agent="Mozilla/5.0 (Windows NT 10.0; Win64; x64) AppleWebKit/537.36 (KHTML, like Gecko) Chrome/112.0.0.0 Safari/537.36" etag="TV05GtWkgp-ej5lvcOIm" version="21.2.9" type="github">
  <diagram name="Page-1" id="WJexi-hbhl3dmOBr19gn">
    <mxGraphModel dx="2591" dy="2300" grid="1" gridSize="10" guides="1" tooltips="1" connect="1" arrows="1" fold="1" page="1" pageScale="1" pageWidth="827" pageHeight="1169" math="0" shadow="0">
      <root>
        <mxCell id="0" />
        <mxCell id="1" parent="0" />
        <mxCell id="n1U7F6p-wiJEakVieZvQ-1" value="" style="endArrow=none;html=1;rounded=0;" parent="1" edge="1">
          <mxGeometry width="50" height="50" relative="1" as="geometry">
            <mxPoint x="-250" y="40" as="sourcePoint" />
            <mxPoint x="-250" y="-830" as="targetPoint" />
          </mxGeometry>
        </mxCell>
        <mxCell id="n1U7F6p-wiJEakVieZvQ-2" value="" style="endArrow=none;html=1;rounded=0;" parent="1" edge="1">
          <mxGeometry width="50" height="50" relative="1" as="geometry">
            <mxPoint x="30" y="40" as="sourcePoint" />
            <mxPoint x="30" y="-830" as="targetPoint" />
          </mxGeometry>
        </mxCell>
        <mxCell id="n1U7F6p-wiJEakVieZvQ-3" value="" style="endArrow=none;html=1;rounded=0;" parent="1" edge="1">
          <mxGeometry width="50" height="50" relative="1" as="geometry">
            <mxPoint x="310" y="40" as="sourcePoint" />
            <mxPoint x="310" y="-830" as="targetPoint" />
          </mxGeometry>
        </mxCell>
        <mxCell id="n1U7F6p-wiJEakVieZvQ-4" value="&lt;font style=&quot;font-size: 16px;&quot;&gt;Temps&lt;/font&gt;" style="text;strokeColor=none;align=center;fillColor=none;html=1;verticalAlign=middle;whiteSpace=wrap;rounded=0;strokeWidth=3;" parent="1" vertex="1">
          <mxGeometry x="-420" y="-875" width="90" height="50" as="geometry" />
        </mxCell>
        <mxCell id="n1U7F6p-wiJEakVieZvQ-5" value="&lt;font style=&quot;font-size: 16px;&quot;&gt;192.168.1.19&lt;/font&gt;" style="text;strokeColor=none;align=center;fillColor=none;html=1;verticalAlign=middle;whiteSpace=wrap;rounded=0;" parent="1" vertex="1">
          <mxGeometry x="-270" y="-860" width="60" height="20" as="geometry" />
        </mxCell>
        <mxCell id="n1U7F6p-wiJEakVieZvQ-6" value="&lt;font style=&quot;font-size: 16px;&quot;&gt;192.168.1.1&lt;/font&gt;" style="text;strokeColor=none;align=center;fillColor=none;html=1;verticalAlign=middle;whiteSpace=wrap;rounded=0;" parent="1" vertex="1">
          <mxGeometry y="-865" width="60" height="30" as="geometry" />
        </mxCell>
        <mxCell id="n1U7F6p-wiJEakVieZvQ-7" value="&lt;font style=&quot;font-size: 16px;&quot;&gt;96.17.207.151&lt;/font&gt;" style="text;strokeColor=none;align=center;fillColor=none;html=1;verticalAlign=middle;whiteSpace=wrap;rounded=0;" parent="1" vertex="1">
          <mxGeometry x="280" y="-865" width="60" height="30" as="geometry" />
        </mxCell>
        <mxCell id="n1U7F6p-wiJEakVieZvQ-8" value="" style="endArrow=classic;html=1;fillColor=#f8cecc;strokeColor=#b85450;rounded=0;strokeWidth=3;" parent="1" edge="1">
          <mxGeometry width="50" height="50" relative="1" as="geometry">
            <mxPoint x="-250" y="-760" as="sourcePoint" />
            <mxPoint x="30" y="-740" as="targetPoint" />
          </mxGeometry>
        </mxCell>
        <mxCell id="n1U7F6p-wiJEakVieZvQ-9" value="&lt;font style=&quot;font-size: 16px;&quot;&gt;51096&lt;/font&gt;" style="text;strokeColor=none;align=center;fillColor=none;html=1;verticalAlign=middle;whiteSpace=wrap;rounded=0;" parent="1" vertex="1">
          <mxGeometry x="-310" y="-780" width="60" height="30" as="geometry" />
        </mxCell>
        <mxCell id="n1U7F6p-wiJEakVieZvQ-10" value="&lt;font style=&quot;font-size: 16px;&quot;&gt;53&lt;/font&gt;" style="text;strokeColor=none;align=center;fillColor=none;html=1;verticalAlign=middle;whiteSpace=wrap;rounded=0;" parent="1" vertex="1">
          <mxGeometry x="14" y="-770" width="60" height="30" as="geometry" />
        </mxCell>
        <mxCell id="n1U7F6p-wiJEakVieZvQ-11" value="&lt;font style=&quot;font-size: 16px;&quot;&gt;0.006986&lt;/font&gt;" style="text;strokeColor=none;align=center;fillColor=none;html=1;verticalAlign=middle;whiteSpace=wrap;rounded=0;" parent="1" vertex="1">
          <mxGeometry x="-405" y="-780" width="60" height="30" as="geometry" />
        </mxCell>
        <mxCell id="n1U7F6p-wiJEakVieZvQ-13" value="" style="endArrow=classic;html=1;rounded=0;entryX=1;entryY=0.5;entryDx=0;entryDy=0;fillColor=#f8cecc;strokeColor=#b85450;strokeWidth=3;" parent="1" target="n1U7F6p-wiJEakVieZvQ-15" edge="1">
          <mxGeometry width="50" height="50" relative="1" as="geometry">
            <mxPoint x="30" y="-740" as="sourcePoint" />
            <mxPoint x="-250" y="-640" as="targetPoint" />
          </mxGeometry>
        </mxCell>
        <mxCell id="n1U7F6p-wiJEakVieZvQ-14" value="&lt;font style=&quot;font-size: 16px;&quot;&gt;0.056813&lt;/font&gt;" style="text;strokeColor=none;align=center;fillColor=none;html=1;verticalAlign=middle;whiteSpace=wrap;rounded=0;" parent="1" vertex="1">
          <mxGeometry x="-405" y="-440" width="60" height="30" as="geometry" />
        </mxCell>
        <mxCell id="n1U7F6p-wiJEakVieZvQ-15" value="&lt;font style=&quot;font-size: 16px;&quot;&gt;51096&lt;/font&gt;" style="text;strokeColor=none;align=center;fillColor=none;html=1;verticalAlign=middle;whiteSpace=wrap;rounded=0;" parent="1" vertex="1">
          <mxGeometry x="-310" y="-440" width="60" height="30" as="geometry" />
        </mxCell>
        <mxCell id="n1U7F6p-wiJEakVieZvQ-16" value="" style="endArrow=classic;html=1;rounded=0;fillColor=#f8cecc;strokeColor=#b85450;strokeWidth=3;" parent="1" edge="1">
          <mxGeometry width="50" height="50" relative="1" as="geometry">
            <mxPoint x="-250" y="-735" as="sourcePoint" />
            <mxPoint x="30" y="-710" as="targetPoint" />
          </mxGeometry>
        </mxCell>
        <mxCell id="n1U7F6p-wiJEakVieZvQ-17" value="&lt;font style=&quot;font-size: 16px;&quot;&gt;53&lt;/font&gt;" style="text;strokeColor=none;align=center;fillColor=none;html=1;verticalAlign=middle;whiteSpace=wrap;rounded=0;" parent="1" vertex="1">
          <mxGeometry x="14" y="-730" width="60" height="30" as="geometry" />
        </mxCell>
        <mxCell id="n1U7F6p-wiJEakVieZvQ-19" value="" style="endArrow=classic;html=1;rounded=0;entryX=1;entryY=0.5;entryDx=0;entryDy=0;fillColor=#f8cecc;strokeColor=#b85450;strokeWidth=3;" parent="1" edge="1">
          <mxGeometry width="50" height="50" relative="1" as="geometry">
            <mxPoint x="30" y="-710" as="sourcePoint" />
            <mxPoint x="-250" y="-675" as="targetPoint" />
          </mxGeometry>
        </mxCell>
        <mxCell id="n1U7F6p-wiJEakVieZvQ-21" value="&lt;font style=&quot;font-size: 16px;&quot;&gt;0.029483&lt;/font&gt;" style="text;strokeColor=none;align=center;fillColor=none;html=1;verticalAlign=middle;whiteSpace=wrap;rounded=0;" parent="1" vertex="1">
          <mxGeometry x="-405" y="-690" width="60" height="30" as="geometry" />
        </mxCell>
        <mxCell id="n1U7F6p-wiJEakVieZvQ-22" value="&lt;font style=&quot;font-size: 16px;&quot;&gt;0.007347&amp;nbsp;&lt;/font&gt;&lt;span style=&quot;border-color: var(--border-color); font-size: 16px;&quot;&gt; &lt;/span&gt;" style="text;strokeColor=none;align=center;fillColor=none;html=1;verticalAlign=middle;whiteSpace=wrap;rounded=0;" parent="1" vertex="1">
          <mxGeometry x="-405" y="-750" width="60" height="30" as="geometry" />
        </mxCell>
        <mxCell id="n1U7F6p-wiJEakVieZvQ-25" value="&lt;font style=&quot;font-size: 16px;&quot;&gt;51095&lt;/font&gt;" style="text;strokeColor=none;align=center;fillColor=none;html=1;verticalAlign=middle;whiteSpace=wrap;rounded=0;" parent="1" vertex="1">
          <mxGeometry x="-310" y="-750" width="60" height="30" as="geometry" />
        </mxCell>
        <mxCell id="n1U7F6p-wiJEakVieZvQ-26" value="&lt;font style=&quot;font-size: 16px;&quot;&gt;51095&lt;/font&gt;" style="text;strokeColor=none;align=center;fillColor=none;html=1;verticalAlign=middle;whiteSpace=wrap;rounded=0;" parent="1" vertex="1">
          <mxGeometry x="-310" y="-690" width="60" height="30" as="geometry" />
        </mxCell>
        <mxCell id="n1U7F6p-wiJEakVieZvQ-27" value="" style="endArrow=classic;html=1;rounded=0;fillColor=#dae8fc;strokeColor=#6c8ebf;strokeWidth=3;" parent="1" edge="1">
          <mxGeometry width="50" height="50" relative="1" as="geometry">
            <mxPoint x="-250" y="-630" as="sourcePoint" />
            <mxPoint x="310" y="-560" as="targetPoint" />
          </mxGeometry>
        </mxCell>
        <mxCell id="n1U7F6p-wiJEakVieZvQ-28" value="&lt;font style=&quot;font-size: 16px;&quot;&gt;51097&lt;/font&gt;" style="text;strokeColor=none;align=center;fillColor=none;html=1;verticalAlign=middle;whiteSpace=wrap;rounded=0;" parent="1" vertex="1">
          <mxGeometry x="-310" y="-650" width="60" height="30" as="geometry" />
        </mxCell>
        <mxCell id="n1U7F6p-wiJEakVieZvQ-29" value="&lt;font style=&quot;font-size: 16px;&quot;&gt;0.037769&lt;/font&gt;" style="text;strokeColor=none;align=center;fillColor=none;html=1;verticalAlign=middle;whiteSpace=wrap;rounded=0;" parent="1" vertex="1">
          <mxGeometry x="-405" y="-650" width="60" height="30" as="geometry" />
        </mxCell>
        <mxCell id="n1U7F6p-wiJEakVieZvQ-30" value="&lt;font style=&quot;font-size: 16px;&quot;&gt;443&lt;/font&gt;" style="text;strokeColor=none;align=center;fillColor=none;html=1;verticalAlign=middle;whiteSpace=wrap;rounded=0;" parent="1" vertex="1">
          <mxGeometry x="310" y="-580" width="60" height="30" as="geometry" />
        </mxCell>
        <mxCell id="n1U7F6p-wiJEakVieZvQ-31" value="" style="endArrow=classic;html=1;rounded=0;fillColor=#dae8fc;strokeColor=#6c8ebf;strokeWidth=3;" parent="1" edge="1">
          <mxGeometry width="50" height="50" relative="1" as="geometry">
            <mxPoint x="310" y="-560" as="sourcePoint" />
            <mxPoint x="-250" y="-510" as="targetPoint" />
          </mxGeometry>
        </mxCell>
        <mxCell id="n1U7F6p-wiJEakVieZvQ-32" value="&lt;font style=&quot;font-size: 16px;&quot;&gt;51097&lt;/font&gt;" style="text;strokeColor=none;align=center;fillColor=none;html=1;verticalAlign=middle;whiteSpace=wrap;rounded=0;" parent="1" vertex="1">
          <mxGeometry x="-310" y="-530" width="60" height="30" as="geometry" />
        </mxCell>
        <mxCell id="n1U7F6p-wiJEakVieZvQ-33" value="&lt;font style=&quot;font-size: 16px;&quot;&gt;0.052991&lt;/font&gt;" style="text;strokeColor=none;align=center;fillColor=none;html=1;verticalAlign=middle;whiteSpace=wrap;rounded=0;" parent="1" vertex="1">
          <mxGeometry x="-405" y="-530" width="60" height="30" as="geometry" />
        </mxCell>
        <mxCell id="n1U7F6p-wiJEakVieZvQ-34" value="" style="endArrow=classic;html=1;rounded=0;fillColor=#dae8fc;strokeColor=#6c8ebf;strokeWidth=3;" parent="1" edge="1">
          <mxGeometry width="50" height="50" relative="1" as="geometry">
            <mxPoint x="-250" y="-490" as="sourcePoint" />
            <mxPoint x="310" y="-450" as="targetPoint" />
          </mxGeometry>
        </mxCell>
        <mxCell id="n1U7F6p-wiJEakVieZvQ-35" value="&lt;font style=&quot;font-size: 16px;&quot;&gt;0.053257&lt;/font&gt;" style="text;strokeColor=none;align=center;fillColor=none;html=1;verticalAlign=middle;whiteSpace=wrap;rounded=0;" parent="1" vertex="1">
          <mxGeometry x="-405" y="-500" width="60" height="30" as="geometry" />
        </mxCell>
        <mxCell id="n1U7F6p-wiJEakVieZvQ-36" value="&lt;font style=&quot;font-size: 16px;&quot;&gt;51097&lt;/font&gt;" style="text;strokeColor=none;align=center;fillColor=none;html=1;verticalAlign=middle;whiteSpace=wrap;rounded=0;" parent="1" vertex="1">
          <mxGeometry x="-310" y="-500" width="60" height="30" as="geometry" />
        </mxCell>
        <mxCell id="n1U7F6p-wiJEakVieZvQ-37" value="&lt;font style=&quot;font-size: 16px;&quot;&gt;443&lt;/font&gt;" style="text;strokeColor=none;align=center;fillColor=none;html=1;verticalAlign=middle;whiteSpace=wrap;rounded=0;" parent="1" vertex="1">
          <mxGeometry x="310" y="-470" width="60" height="30" as="geometry" />
        </mxCell>
        <mxCell id="n1U7F6p-wiJEakVieZvQ-38" value="&lt;font color=&quot;#ff0000&quot; style=&quot;font-size: 22px;&quot;&gt;DNS&lt;/font&gt;" style="text;strokeColor=#b85450;align=center;fillColor=#f8cecc;html=1;verticalAlign=middle;whiteSpace=wrap;rounded=0;" parent="1" vertex="1">
          <mxGeometry x="60" y="-740" width="60" height="30" as="geometry" />
        </mxCell>
        <mxCell id="n1U7F6p-wiJEakVieZvQ-39" value="&lt;font color=&quot;#007fff&quot; style=&quot;font-size: 21px;&quot;&gt;TCP&lt;/font&gt;" style="text;strokeColor=#6c8ebf;align=center;fillColor=#dae8fc;html=1;verticalAlign=middle;whiteSpace=wrap;rounded=0;" parent="1" vertex="1">
          <mxGeometry x="230" y="-620" width="60" height="30" as="geometry" />
        </mxCell>
        <mxCell id="n1U7F6p-wiJEakVieZvQ-41" value="&lt;font style=&quot;font-size: 18px;&quot;&gt;12&lt;/font&gt;" style="text;strokeColor=#b85450;align=center;fillColor=#f8cecc;html=1;verticalAlign=middle;whiteSpace=wrap;rounded=0;" parent="1" vertex="1">
          <mxGeometry x="-210" y="-735" width="20" height="20" as="geometry" />
        </mxCell>
        <mxCell id="n1U7F6p-wiJEakVieZvQ-52" value="&lt;font style=&quot;font-size: 18px;&quot;&gt;10&lt;/font&gt;" style="text;strokeColor=#b85450;align=center;fillColor=#f8cecc;html=1;verticalAlign=middle;whiteSpace=wrap;rounded=0;" parent="1" vertex="1">
          <mxGeometry x="-120" y="-775" width="20" height="20" as="geometry" />
        </mxCell>
        <mxCell id="n1U7F6p-wiJEakVieZvQ-53" value="&lt;font style=&quot;font-size: 18px;&quot;&gt;17&lt;/font&gt;" style="text;strokeColor=#b85450;align=center;fillColor=#f8cecc;html=1;verticalAlign=middle;whiteSpace=wrap;rounded=0;" parent="1" vertex="1">
          <mxGeometry x="-110" y="-700" width="20" height="20" as="geometry" />
        </mxCell>
        <mxCell id="n1U7F6p-wiJEakVieZvQ-54" value="&lt;span style=&quot;font-size: 18px;&quot;&gt;26&lt;/span&gt;" style="text;strokeColor=#b85450;align=center;fillColor=#f8cecc;html=1;verticalAlign=middle;whiteSpace=wrap;rounded=0;" parent="1" vertex="1">
          <mxGeometry x="-40" y="-670" width="20" height="20" as="geometry" />
        </mxCell>
        <mxCell id="n1U7F6p-wiJEakVieZvQ-56" value="&lt;font style=&quot;font-size: 18px;&quot;&gt;22 SYN&lt;/font&gt;" style="text;strokeColor=#6c8ebf;align=center;fillColor=#dae8fc;html=1;verticalAlign=middle;whiteSpace=wrap;rounded=0;" parent="1" vertex="1">
          <mxGeometry x="-180" y="-620" width="60" height="40" as="geometry" />
        </mxCell>
        <mxCell id="n1U7F6p-wiJEakVieZvQ-62" value="&lt;font style=&quot;font-size: 18px;&quot;&gt;23 SYN,ACK&lt;/font&gt;" style="text;strokeColor=#6c8ebf;align=center;fillColor=#dae8fc;html=1;verticalAlign=middle;whiteSpace=wrap;rounded=0;" parent="1" vertex="1">
          <mxGeometry x="70" y="-540" width="90" height="40" as="geometry" />
        </mxCell>
        <mxCell id="n1U7F6p-wiJEakVieZvQ-63" value="&lt;font style=&quot;font-size: 18px;&quot;&gt;24 ACK&lt;/font&gt;" style="text;strokeColor=#6c8ebf;align=center;fillColor=#dae8fc;html=1;verticalAlign=middle;whiteSpace=wrap;rounded=0;" parent="1" vertex="1">
          <mxGeometry x="-20" y="-495" width="50" height="45" as="geometry" />
        </mxCell>
        <mxCell id="_BkDuq4qd8k27kDSEMzj-3" value="&lt;font style=&quot;font-size: 19px;&quot;&gt;&amp;nbsp;Les numéros sur les flèches sont les numéros des paquets&amp;nbsp;&lt;/font&gt;" style="text;strokeColor=none;align=center;fillColor=none;html=1;verticalAlign=middle;whiteSpace=wrap;rounded=0;" parent="1" vertex="1">
          <mxGeometry x="-315" y="-1040" width="690" height="30" as="geometry" />
        </mxCell>
        <mxCell id="eQPu3dBEFxutYys5tmZO-1" value="" style="endArrow=classic;html=1;rounded=0;fillColor=#dae8fc;strokeColor=#6c8ebf;strokeWidth=3;" parent="1" edge="1">
          <mxGeometry width="50" height="50" relative="1" as="geometry">
            <mxPoint x="310" y="-400" as="sourcePoint" />
            <mxPoint x="-250" y="-330" as="targetPoint" />
          </mxGeometry>
        </mxCell>
        <mxCell id="eQPu3dBEFxutYys5tmZO-2" value="&lt;font style=&quot;font-size: 16px;&quot;&gt;0.068690&lt;/font&gt;" style="text;strokeColor=none;align=center;fillColor=none;html=1;verticalAlign=middle;whiteSpace=wrap;rounded=0;" parent="1" vertex="1">
          <mxGeometry x="-405" y="-350" width="60" height="30" as="geometry" />
        </mxCell>
        <mxCell id="eQPu3dBEFxutYys5tmZO-3" value="&lt;font style=&quot;font-size: 16px;&quot;&gt;443&lt;/font&gt;" style="text;strokeColor=none;align=center;fillColor=none;html=1;verticalAlign=middle;whiteSpace=wrap;rounded=0;" parent="1" vertex="1">
          <mxGeometry x="310" y="-410" width="60" height="30" as="geometry" />
        </mxCell>
        <mxCell id="eQPu3dBEFxutYys5tmZO-4" value="&lt;font style=&quot;font-size: 16px;&quot;&gt;51097&lt;/font&gt;" style="text;strokeColor=none;align=center;fillColor=none;html=1;verticalAlign=middle;whiteSpace=wrap;rounded=0;" parent="1" vertex="1">
          <mxGeometry x="-310" y="-350" width="60" height="30" as="geometry" />
        </mxCell>
        <mxCell id="eQPu3dBEFxutYys5tmZO-5" value="&lt;font style=&quot;font-size: 17px;&quot;&gt;29 ACK&lt;/font&gt;" style="text;strokeColor=#6c8ebf;align=center;fillColor=#dae8fc;html=1;verticalAlign=middle;whiteSpace=wrap;rounded=0;" parent="1" vertex="1">
          <mxGeometry x="-30" y="-390" width="60" height="30" as="geometry" />
        </mxCell>
        <mxCell id="eQPu3dBEFxutYys5tmZO-6" value="" style="endArrow=classic;html=1;rounded=0;fillColor=#dae8fc;strokeColor=#6c8ebf;strokeWidth=3;" parent="1" edge="1">
          <mxGeometry width="50" height="50" relative="1" as="geometry">
            <mxPoint x="307.5" y="-170" as="sourcePoint" />
            <mxPoint x="-252.5" y="-100" as="targetPoint" />
          </mxGeometry>
        </mxCell>
        <mxCell id="eQPu3dBEFxutYys5tmZO-7" value="&lt;font style=&quot;font-size: 16px;&quot;&gt;443&lt;/font&gt;" style="text;strokeColor=none;align=center;fillColor=none;html=1;verticalAlign=middle;whiteSpace=wrap;rounded=0;" parent="1" vertex="1">
          <mxGeometry x="307.5" y="-180" width="60" height="30" as="geometry" />
        </mxCell>
        <mxCell id="eQPu3dBEFxutYys5tmZO-8" value="&lt;font style=&quot;font-size: 16px;&quot;&gt;51097&lt;/font&gt;" style="text;strokeColor=none;align=center;fillColor=none;html=1;verticalAlign=middle;whiteSpace=wrap;rounded=0;" parent="1" vertex="1">
          <mxGeometry x="-310" y="-110" width="60" height="30" as="geometry" />
        </mxCell>
        <mxCell id="eQPu3dBEFxutYys5tmZO-9" value="&lt;font style=&quot;font-size: 17px;&quot;&gt;34&lt;/font&gt;" style="text;strokeColor=#6c8ebf;align=center;fillColor=#dae8fc;html=1;verticalAlign=middle;whiteSpace=wrap;rounded=0;" parent="1" vertex="1">
          <mxGeometry x="-10" y="-130" width="20" height="20" as="geometry" />
        </mxCell>
        <mxCell id="eQPu3dBEFxutYys5tmZO-10" value="&lt;font style=&quot;font-size: 16px;&quot;&gt;0.087028&lt;/font&gt;" style="text;strokeColor=none;align=center;fillColor=none;html=1;verticalAlign=middle;whiteSpace=wrap;rounded=0;" parent="1" vertex="1">
          <mxGeometry x="-407.5" y="-110" width="60" height="30" as="geometry" />
        </mxCell>
        <mxCell id="eQPu3dBEFxutYys5tmZO-16" value="" style="endArrow=classic;html=1;rounded=0;fillColor=#dae8fc;strokeColor=#6c8ebf;strokeWidth=3;" parent="1" edge="1">
          <mxGeometry width="50" height="50" relative="1" as="geometry">
            <mxPoint x="-252.5" y="-30" as="sourcePoint" />
            <mxPoint x="307.5" y="10" as="targetPoint" />
          </mxGeometry>
        </mxCell>
        <mxCell id="eQPu3dBEFxutYys5tmZO-17" value="&lt;font style=&quot;font-size: 16px;&quot;&gt;51097&lt;/font&gt;" style="text;strokeColor=none;align=center;fillColor=none;html=1;verticalAlign=middle;whiteSpace=wrap;rounded=0;" parent="1" vertex="1">
          <mxGeometry x="-310" y="-50" width="60" height="30" as="geometry" />
        </mxCell>
        <mxCell id="eQPu3dBEFxutYys5tmZO-18" value="&lt;font style=&quot;font-size: 16px;&quot;&gt;443&lt;/font&gt;" style="text;strokeColor=none;align=center;fillColor=none;html=1;verticalAlign=middle;whiteSpace=wrap;rounded=0;" parent="1" vertex="1">
          <mxGeometry x="307.5" y="-20" width="60" height="30" as="geometry" />
        </mxCell>
        <mxCell id="eQPu3dBEFxutYys5tmZO-19" value="&lt;font style=&quot;font-size: 16px;&quot;&gt;0.090793&lt;/font&gt;" style="text;strokeColor=none;align=center;fillColor=none;html=1;verticalAlign=middle;whiteSpace=wrap;rounded=0;" parent="1" vertex="1">
          <mxGeometry x="-407.5" y="-50" width="60" height="30" as="geometry" />
        </mxCell>
        <mxCell id="eQPu3dBEFxutYys5tmZO-20" value="&lt;font style=&quot;font-size: 17px;&quot;&gt;39&lt;/font&gt;" style="text;strokeColor=#6c8ebf;align=center;fillColor=#dae8fc;html=1;verticalAlign=middle;whiteSpace=wrap;rounded=0;" parent="1" vertex="1">
          <mxGeometry x="60" y="-30" width="20" height="20" as="geometry" />
        </mxCell>
        <mxCell id="eQPu3dBEFxutYys5tmZO-21" value="&lt;font style=&quot;font-size: 17px;&quot;&gt;35&lt;/font&gt;" style="text;strokeColor=#6c8ebf;align=center;fillColor=#dae8fc;html=1;verticalAlign=middle;whiteSpace=wrap;rounded=0;" parent="1" vertex="1">
          <mxGeometry x="-50" y="-130" width="20" height="20" as="geometry" />
        </mxCell>
        <mxCell id="m-aXnjqWYBUEtU9hvBRL-1" value="" style="endArrow=classic;html=1;rounded=0;fillColor=#d5e8d4;strokeColor=#82b366;strokeWidth=3;" parent="1" edge="1">
          <mxGeometry width="50" height="50" relative="1" as="geometry">
            <mxPoint x="-250" y="-460" as="sourcePoint" />
            <mxPoint x="310" y="-420" as="targetPoint" />
          </mxGeometry>
        </mxCell>
        <mxCell id="m-aXnjqWYBUEtU9hvBRL-2" value="&lt;font color=&quot;#0e6b0b&quot; style=&quot;font-size: 21px;&quot;&gt;TLS&lt;/font&gt;" style="text;strokeColor=#82b366;align=center;fillColor=#d5e8d4;html=1;verticalAlign=middle;whiteSpace=wrap;rounded=0;" parent="1" vertex="1">
          <mxGeometry x="240" y="-500" width="60" height="30" as="geometry" />
        </mxCell>
        <mxCell id="m-aXnjqWYBUEtU9hvBRL-3" value="&lt;font style=&quot;font-size: 18px;&quot;&gt;25 Client Hello&lt;/font&gt;" style="text;strokeColor=#82b366;align=center;fillColor=#d5e8d4;html=1;verticalAlign=middle;whiteSpace=wrap;rounded=0;" parent="1" vertex="1">
          <mxGeometry x="-100" y="-450" width="80" height="40" as="geometry" />
        </mxCell>
        <mxCell id="m-aXnjqWYBUEtU9hvBRL-4" value="&lt;font style=&quot;font-size: 16px;&quot;&gt;0.054475&lt;/font&gt;" style="text;strokeColor=none;align=center;fillColor=none;html=1;verticalAlign=middle;whiteSpace=wrap;rounded=0;" parent="1" vertex="1">
          <mxGeometry x="-405" y="-475" width="60" height="30" as="geometry" />
        </mxCell>
        <mxCell id="m-aXnjqWYBUEtU9hvBRL-5" value="&lt;font style=&quot;font-size: 16px;&quot;&gt;51097&lt;/font&gt;" style="text;strokeColor=none;align=center;fillColor=none;html=1;verticalAlign=middle;whiteSpace=wrap;rounded=0;" parent="1" vertex="1">
          <mxGeometry x="-310" y="-475" width="60" height="30" as="geometry" />
        </mxCell>
        <mxCell id="m-aXnjqWYBUEtU9hvBRL-6" value="&lt;font style=&quot;font-size: 16px;&quot;&gt;443&lt;/font&gt;" style="text;strokeColor=none;align=center;fillColor=none;html=1;verticalAlign=middle;whiteSpace=wrap;rounded=0;" parent="1" vertex="1">
          <mxGeometry x="310" y="-440" width="60" height="30" as="geometry" />
        </mxCell>
        <mxCell id="m-aXnjqWYBUEtU9hvBRL-7" value="" style="endArrow=classic;html=1;rounded=0;fillColor=#d5e8d4;strokeColor=#82b366;strokeWidth=3;" parent="1" edge="1">
          <mxGeometry width="50" height="50" relative="1" as="geometry">
            <mxPoint x="310" y="-370" as="sourcePoint" />
            <mxPoint x="-250" y="-300" as="targetPoint" />
          </mxGeometry>
        </mxCell>
        <mxCell id="m-aXnjqWYBUEtU9hvBRL-8" value="&lt;font style=&quot;font-size: 18px;&quot;&gt;30 &lt;/font&gt;&lt;font style=&quot;font-size: 12px;&quot;&gt;Server Hello,Change cipher spec ,App DATA x2&lt;/font&gt;" style="text;strokeColor=#82b366;align=center;fillColor=#d5e8d4;html=1;verticalAlign=middle;whiteSpace=wrap;rounded=0;" parent="1" vertex="1">
          <mxGeometry x="50" y="-345" width="160" height="55" as="geometry" />
        </mxCell>
        <mxCell id="m-aXnjqWYBUEtU9hvBRL-9" value="&lt;font style=&quot;font-size: 16px;&quot;&gt;51097&lt;/font&gt;" style="text;strokeColor=none;align=center;fillColor=none;html=1;verticalAlign=middle;whiteSpace=wrap;rounded=0;" parent="1" vertex="1">
          <mxGeometry x="-310" y="-320" width="60" height="30" as="geometry" />
        </mxCell>
        <mxCell id="m-aXnjqWYBUEtU9hvBRL-10" value="&lt;font style=&quot;font-size: 16px;&quot;&gt;443&lt;/font&gt;" style="text;strokeColor=none;align=center;fillColor=none;html=1;verticalAlign=middle;whiteSpace=wrap;rounded=0;" parent="1" vertex="1">
          <mxGeometry x="310" y="-380" width="60" height="30" as="geometry" />
        </mxCell>
        <mxCell id="m-aXnjqWYBUEtU9hvBRL-11" value="&lt;font style=&quot;font-size: 16px;&quot;&gt;0.072969&lt;/font&gt;" style="text;strokeColor=none;align=center;fillColor=none;html=1;verticalAlign=middle;whiteSpace=wrap;rounded=0;" parent="1" vertex="1">
          <mxGeometry x="-405" y="-320" width="60" height="30" as="geometry" />
        </mxCell>
        <mxCell id="m-aXnjqWYBUEtU9hvBRL-12" value="" style="endArrow=classic;html=1;rounded=0;fillColor=#d5e8d4;strokeColor=#82b366;strokeWidth=3;" parent="1" edge="1">
          <mxGeometry width="50" height="50" relative="1" as="geometry">
            <mxPoint x="-250" y="-275.5" as="sourcePoint" />
            <mxPoint x="310" y="-235.5" as="targetPoint" />
          </mxGeometry>
        </mxCell>
        <mxCell id="m-aXnjqWYBUEtU9hvBRL-13" value="" style="endArrow=classic;html=1;rounded=0;fillColor=#d5e8d4;strokeColor=#82b366;strokeWidth=3;" parent="1" edge="1">
          <mxGeometry width="50" height="50" relative="1" as="geometry">
            <mxPoint x="-250" y="-255" as="sourcePoint" />
            <mxPoint x="310" y="-215" as="targetPoint" />
          </mxGeometry>
        </mxCell>
        <mxCell id="m-aXnjqWYBUEtU9hvBRL-14" value="" style="endArrow=classic;html=1;rounded=0;fillColor=#d5e8d4;strokeColor=#82b366;strokeWidth=3;" parent="1" edge="1">
          <mxGeometry width="50" height="50" relative="1" as="geometry">
            <mxPoint x="-250" y="-230" as="sourcePoint" />
            <mxPoint x="310" y="-190" as="targetPoint" />
          </mxGeometry>
        </mxCell>
        <mxCell id="uAmkSrfiqMMbY6UTzS1H-1" value="&lt;font style=&quot;font-size: 16px;&quot;&gt;31&lt;/font&gt;&lt;font style=&quot;font-size: 12px;&quot;&gt; &lt;/font&gt;&lt;font size=&quot;1&quot; style=&quot;&quot;&gt;Change cipher spec,App DATA&lt;/font&gt;" style="text;strokeColor=#82b366;align=center;fillColor=#d5e8d4;html=1;verticalAlign=middle;whiteSpace=wrap;rounded=0;" vertex="1" parent="1">
          <mxGeometry x="-100" y="-290" width="100" height="30" as="geometry" />
        </mxCell>
        <mxCell id="uAmkSrfiqMMbY6UTzS1H-2" value="&lt;font style=&quot;font-size: 16px;&quot;&gt;33&lt;/font&gt;&lt;font style=&quot;font-size: 12px;&quot;&gt;&amp;nbsp;&lt;/font&gt;&lt;font size=&quot;1&quot; style=&quot;&quot;&gt;App DATA&lt;/font&gt;" style="text;strokeColor=#82b366;align=center;fillColor=#d5e8d4;html=1;verticalAlign=middle;whiteSpace=wrap;rounded=0;" vertex="1" parent="1">
          <mxGeometry x="-112.5" y="-220" width="100" height="30" as="geometry" />
        </mxCell>
        <mxCell id="uAmkSrfiqMMbY6UTzS1H-3" value="&lt;font style=&quot;font-size: 16px;&quot;&gt;32&lt;/font&gt;&lt;font style=&quot;font-size: 12px;&quot;&gt;&amp;nbsp;&lt;/font&gt;&lt;font size=&quot;1&quot; style=&quot;&quot;&gt;App DATA&lt;/font&gt;" style="text;strokeColor=#82b366;align=center;fillColor=#d5e8d4;html=1;verticalAlign=middle;whiteSpace=wrap;rounded=0;" vertex="1" parent="1">
          <mxGeometry x="60" y="-240" width="100" height="30" as="geometry" />
        </mxCell>
        <mxCell id="uAmkSrfiqMMbY6UTzS1H-6" value="&lt;span style=&quot;font-size: 16px;&quot;&gt;36, 37, 38 App DATA&lt;/span&gt;" style="text;strokeColor=#82b366;align=center;fillColor=#d5e8d4;html=1;verticalAlign=middle;whiteSpace=wrap;rounded=0;" vertex="1" parent="1">
          <mxGeometry x="140" y="-115" width="102.5" height="40" as="geometry" />
        </mxCell>
        <mxCell id="uAmkSrfiqMMbY6UTzS1H-7" value="" style="endArrow=classic;html=1;rounded=0;fillColor=#d5e8d4;strokeColor=#82b366;strokeWidth=3;" edge="1" parent="1">
          <mxGeometry width="50" height="50" relative="1" as="geometry">
            <mxPoint x="307.5" y="-130" as="sourcePoint" />
            <mxPoint x="-252.5" y="-60" as="targetPoint" />
          </mxGeometry>
        </mxCell>
      </root>
    </mxGraphModel>
  </diagram>
</mxfile>
